<?xml version="1.0" standalone="no"?>
<!DOCTYPE svg PUBLIC "-//W3C//DTD SVG 20010904//EN"
 "http://www.w3.org/TR/2001/REC-SVG-20010904/DTD/svg10.dtd">
<svg version="1.0" xmlns="http://www.w3.org/2000/svg"
 width="796.000000pt" height="796.000000pt" viewBox="0 0 796.000000 796.000000"
 preserveAspectRatio="xMidYMid meet">
<metadata>
Created by potrace 1.14, written by Peter Selinger 2001-2017
</metadata>
<g transform="translate(0.000000,796.000000) scale(0.100000,-0.100000)"
fill="#000000" stroke="none">
<path d="M2068 7442 c-64 -23 -128 -70 -159 -118 -46 -68 -1821 -3146 -1847
-3204 -31 -66 -35 -172 -8 -234 9 -21 429 -754 933 -1628 578 -1002 932 -1605
956 -1630 22 -22 64 -52 95 -66 l57 -27 1890 0 1890 0 51 23 c92 42 125 89
389 547 137 237 550 952 918 1590 368 638 676 1177 683 1199 16 45 18 146 4
196 -15 54 -1853 3230 -1893 3272 -20 20 -60 50 -89 65 l-53 28 -1885 2
c-1758 2 -1888 1 -1932 -15z m1737 -723 c248 -66 837 -224 1310 -350 541 -145
875 -240 901 -255 50 -28 99 -82 125 -138 11 -22 175 -621 365 -1331 331
-1237 345 -1293 342 -1365 -2 -53 -10 -89 -27 -124 -19 -38 -239 -264 -985
-1011 -1059 -1061 -1007 -1014 -1141 -1022 -74 -5 3 -24 -1600 407 -121 33
-407 109 -635 170 -228 61 -437 120 -463 132 -55 25 -131 102 -153 155 -9 20
-171 615 -361 1322 -380 1413 -371 1370 -324 1476 18 42 178 207 994 1023 535
535 986 981 1002 989 47 26 106 42 155 42 28 1 217 -45 495 -120z"/>
<path d="M3919 5917 c-62 -18 -1504 -850 -1552 -896 -21 -20 -50 -61 -65 -91
l-27 -55 0 -895 0 -895 28 -57 c16 -32 48 -74 72 -95 64 -56 1487 -874 1549
-890 58 -16 138 -11 193 12 19 8 341 191 715 407 510 294 687 402 707 427 21
28 26 45 26 91 0 90 -15 103 -317 277 -279 161 -329 181 -416 169 -65 -9 -113
-33 -444 -225 -313 -181 -349 -196 -433 -180 -52 10 -689 372 -743 423 -19 17
-43 49 -55 71 -22 39 -22 48 -22 465 0 417 0 426 22 465 12 22 36 54 55 71 54
51 691 413 743 423 84 16 120 1 433 -180 331 -192 379 -216 444 -225 87 -12
137 8 416 169 302 174 317 187 317 277 0 46 -5 63 -26 91 -20 25 -197 132
-707 427 -375 216 -697 399 -717 408 -50 21 -142 26 -196 11z"/>
</g>
</svg>
