<svg width="199" height="174" viewBox="0 0 199 174" fill="none" xmlns="http://www.w3.org/2000/svg">
<path d="M47.2931 4C48.7221 1.52479 51.3632 1.11604e-07 54.2213 1.08197e-07L144.984 0C147.842 -3.40715e-09 150.483 1.52479 151.912 4L197.293 82.6025C198.722 85.0777 198.722 88.1273 197.293 90.6025L151.912 169.205C150.483 171.68 147.842 173.205 144.984 173.205H54.2213C51.3632 173.205 48.7221 171.68 47.2931 169.205L1.91189 90.6025C0.482823 88.1273 0.482821 85.0777 1.91188 82.6025L47.2931 4Z" fill="#3E3E3E"/>
<path d="M77.1784 17.8546C79.1994 15.8336 82.1451 15.0443 84.9058 15.784L148.427 32.8046C151.188 33.5443 153.345 35.7007 154.084 38.4614L171.105 101.983C171.845 104.744 171.055 107.689 169.034 109.71L122.533 156.211C120.512 158.232 117.567 159.022 114.806 158.282L51.2842 141.261C48.5235 140.522 46.3671 138.365 45.6274 135.605L28.6068 72.083C27.8671 69.3223 28.6564 66.3766 30.6774 64.3556L77.1784 17.8546Z" fill="white"/>
<path d="M137.301 58.5359L104 39.3094C101.525 37.8803 98.4752 37.8803 95.9999 39.3094L60.6987 59.6906C58.2235 61.1197 56.6987 63.7607 56.6987 66.6188V107.381C56.6987 110.239 58.2235 112.88 60.6987 114.309L95.9999 134.691C98.4751 136.12 101.525 136.12 104 134.691L137.301 115.464C139.968 113.924 139.968 110.076 137.301 108.536L125.651 101.809C123.175 100.38 120.126 100.38 117.651 101.809L103 110.268C101.144 111.34 98.8563 111.34 96.9999 110.268L81.3493 101.232C79.4929 100.16 78.3493 98.1795 78.3493 96.0359V77.9641C78.3493 75.8205 79.4929 73.8397 81.3493 72.768L96.9999 63.7321C98.8563 62.6603 101.144 62.6603 103 63.7321L117.651 72.1906C120.126 73.6197 123.175 73.6197 125.651 72.1906L137.301 65.4641C139.968 63.9245 139.968 60.0755 137.301 58.5359Z" fill="#3E3E3E"/>
</svg>
